<svg width="38" height="42" viewBox="0 0 38 42" fill="none" xmlns="http://www.w3.org/2000/svg">
<g filter="url(#filter0_d_4902_299)">
<path d="M31.99 11.2979C30.6811 9.02947 28.7973 7.1462 26.5285 5.83788C24.229 4.49838 21.7195 3.82788 19 3.82788C16.2805 3.82788 13.771 4.49838 11.47 5.83788C9.1705 7.17738 7.3495 8.99838 6.01 11.2979C4.6705 13.5974 4 16.1084 4 18.8279C4 21.5474 4.669 24.0584 6.01 26.3579C7.31848 28.6266 9.20238 30.51 11.4715 31.8179C13.771 33.1574 16.2805 33.8279 19 33.8279C21.7195 33.8279 24.229 33.1574 26.53 31.8179C28.7988 30.5096 30.6826 28.6263 31.9915 26.3579C33.331 24.0584 34 21.5474 34 18.8279C34 16.1084 33.331 13.5974 31.99 11.2979ZM19 6.31788C22 6.31788 24.658 7.27788 26.98 9.19638C25.6 10.9574 23.551 12.4064 20.83 13.5464C19.327 10.8269 17.698 8.55588 15.9385 6.73638C16.9357 6.46065 17.9654 6.3199 19 6.31788ZM9.265 11.0279C10.3619 9.63502 11.7497 8.49854 13.3315 7.69788C15.1495 9.49938 16.819 11.7479 18.3415 14.4479C15.3415 15.3479 12.1705 15.7979 8.83 15.7979C7.9705 15.7979 7.321 15.7784 6.88 15.7379C7.33971 14.0195 8.15192 12.4155 9.265 11.0279ZM6.49 18.8279C6.49 18.7469 6.4945 18.6479 6.505 18.5279C6.5155 18.4079 6.52 18.3089 6.52 18.2279C6.901 18.2489 7.4815 18.2579 8.2615 18.2579C12.2605 18.2579 15.9805 17.7074 19.42 16.6079C19.7005 17.1674 19.9915 17.7974 20.29 18.4979C18.31 18.9374 16.279 20.0069 14.1985 21.7079C12.118 23.4089 10.6 25.1984 9.64 27.0779C7.54 24.6974 6.49 21.9479 6.49 18.8279ZM19 31.3379C16.159 31.3379 13.609 30.4574 11.3485 28.6994C12.25 26.9189 13.6345 25.2164 15.505 23.5979C17.374 21.9779 19.2295 20.9684 21.07 20.5679C22.231 23.7764 23.0162 27.1086 23.41 30.4979C22.0043 31.0472 20.5092 31.332 19 31.3379ZM29.62 25.3979C28.6382 26.9797 27.3161 28.3228 25.75 29.3294C25.39 26.2094 24.7 23.1689 23.6815 20.2079C25.0795 20.1089 26.329 20.0579 27.4315 20.0579C28.63 20.0579 29.9605 20.1089 31.42 20.2079C31.2242 22.0526 30.6084 23.828 29.62 25.3979ZM27.76 17.8979C26.02 17.8979 24.4105 17.9684 22.93 18.1079C22.6164 17.2871 22.2762 16.4766 21.91 15.6779C25.009 14.3189 27.208 12.6689 28.5085 10.7279C30.3085 12.8489 31.2895 15.2684 31.4485 17.9879C30.2305 17.9279 29.0005 17.8979 27.76 17.8979Z" fill="black"/>
</g>
<defs>
<filter id="filter0_d_4902_299" x="-3" y="0.827881" width="44" height="44" filterUnits="userSpaceOnUse" color-interpolation-filters="sRGB">
<feFlood flood-opacity="0" result="BackgroundImageFix"/>
<feColorMatrix in="SourceAlpha" type="matrix" values="0 0 0 0 0 0 0 0 0 0 0 0 0 0 0 0 0 0 127 0" result="hardAlpha"/>
<feOffset dy="4"/>
<feGaussianBlur stdDeviation="2"/>
<feComposite in2="hardAlpha" operator="out"/>
<feColorMatrix type="matrix" values="0 0 0 0 0 0 0 0 0 0 0 0 0 0 0 0 0 0 0.25 0"/>
<feBlend mode="normal" in2="BackgroundImageFix" result="effect1_dropShadow_4902_299"/>
<feBlend mode="normal" in="SourceGraphic" in2="effect1_dropShadow_4902_299" result="shape"/>
</filter>
</defs>
</svg>
